<svg xmlns="http://www.w3.org/2000/svg" width="148.243" height="235.176" viewBox="0 0 148.243 235.176">
  <g id="man-sitting" transform="translate(-116.259 -178.5)">
    <circle id="Ellipse_10" data-name="Ellipse 10" cx="27" cy="27" r="27" transform="translate(172.059 178.5)" fill="#271804"/>
    <path id="Path_31" data-name="Path 31" d="M173.4,378.826l-.715-12.238L219.556,358l1.056,18.064Z" fill="#ffb8b8"/>
    <path id="Path_32" data-name="Path 32" d="M436.622,598.163h23.644V613.05H421.735A14.887,14.887,0,0,1,436.622,598.163Z" transform="translate(747.34 -113.142) rotate(86.655)" fill="#16161e"/>
    <path id="Path_33" data-name="Path 33" d="M193.789,378.714,186,388.185l-40.236-25.519,11.489-13.978Z" fill="#ffb8b8"/>
    <path id="Path_34" data-name="Path 34" d="M454.39,629.787h23.644v14.887H439.5A14.887,14.887,0,0,1,454.39,629.787Z" transform="matrix(0.635, -0.773, 0.773, 0.635, -597.32, 343.861)" fill="#16161e"/>
    <path id="Path_35" data-name="Path 35" d="M443.887,577.83l-5.32,25.079a4,4,0,0,0,3.848,4.83l52.3.844a4,4,0,0,0,4-4.695l-4.575-25.922a4,4,0,0,0-3.939-3.3H447.8A4,4,0,0,0,443.887,577.83Z" transform="translate(-272.5 -243.16)" fill="#2f2e41"/>
    <path id="Path_36" data-name="Path 36" d="M452.559,586.66s-51-32-61-15c-5,8.5-2.5,16.75,1.25,22.875a34.631,34.631,0,0,0,14.4,12.891l41.348,20.234,15-16-10-9Z" transform="translate(-272.5 -243.16)" fill="#16161e"/>
    <path id="Path_37" data-name="Path 37" d="M478.559,581.66s66-19,53,17-62,22-62,22l-5-15,17-12Z" transform="translate(-272.5 -243.16)" fill="#16161e"/>
    <circle id="Ellipse_11" data-name="Ellipse 11" cx="24.561" cy="24.561" r="24.561" transform="translate(174.837 187.104)" fill="#ffb8b8"/>
    <path id="Path_38" data-name="Path 38" d="M473.185,585.629a131.994,131.994,0,0,1-30.257-3.986l-.293-.08L428.93,518.518a23.225,23.225,0,0,1,14.933-26.943,80.459,80.459,0,0,1,51.3-1.025h0A23.47,23.47,0,0,1,510.8,518.315l-15.308,63.2-.216.1C488.911,584.626,480.956,585.629,473.185,585.629Z" transform="translate(-272.5 -243.16)" fill="#eca81f"/>
    <path id="Path_39" data-name="Path 39" d="M454.774,590.526a10.056,10.056,0,0,1,14.475-5.312l26.987-23.424,2.442,18.409-26,19.422a10.11,10.11,0,0,1-17.9-9.094Z" transform="translate(-272.5 -243.16)" fill="#ffb8b8"/>
    <path id="Path_40" data-name="Path 40" d="M480.512,595.636a4.532,4.532,0,0,1-1.3-.19,4.453,4.453,0,0,1-2.962-2.816L473,583.4a4.472,4.472,0,0,1,1.3-4.9l36.769-22.074-14.494-64.661.369-.089c.15-.037,15-3.417,21.086,12.81,4.261,11.365,20.031,36.077,18.919,52.776a14.885,14.885,0,0,1-12.322,13.727L483.236,594.7a4.456,4.456,0,0,1-2.724.935Z" transform="translate(-272.5 -243.16)" fill="#eca81f"/>
    <path id="Path_41" data-name="Path 41" d="M484.636,588.333a10.056,10.056,0,0,0-14.475-5.312L443.174,559.6,440.732,578l26,19.422a10.11,10.11,0,0,0,17.9-9.094Z" transform="translate(-272.5 -243.16)" fill="#ffb8b8"/>
    <path id="Path_42" data-name="Path 42" d="M461.606,595.636a4.456,4.456,0,0,1-2.724-.935l-44.388-21.713a14.885,14.885,0,0,1-12.322-13.727c-1.113-16.7,17.658-43.411,21.919-54.776,6.085-16.228,20.936-12.849,21.086-12.81l.369.089-17.494,66.661L467.82,578.5a4.472,4.472,0,0,1,1.3,4.9l-3.257,9.229a4.453,4.453,0,0,1-2.962,2.816A4.534,4.534,0,0,1,461.606,595.636Z" transform="translate(-272.5 -243.16)" fill="#eca81f"/>
    <path id="Laptop" d="M514.559,605.66h-89a7.008,7.008,0,0,1-7-7v-49a7.008,7.008,0,0,1,7-7h89a7.008,7.008,0,0,1,7,7v49A7.008,7.008,0,0,1,514.559,605.66Z" transform="translate(-272.5 -243.16)" fill="#575757"/>
    <circle id="Ellipse_12" data-name="Ellipse 12" cx="6" cy="6" r="6" transform="translate(191.559 325)" fill="#fff"/>
    <path id="Path_44" data-name="Path 44" d="M447.091,453.826c-1.456-3.692.933-8.092,4.476-9.881s7.818-1.448,11.608-.27c3.185.991,6.17,2.526,9.277,3.738a20.761,20.761,0,0,0,9.753,1.737c3.314-.374,6.613-2.233,7.969-5.28,1.406-3.159.45-7.013-1.715-9.709a18.8,18.8,0,0,0-8.612-5.535c-7.307-2.574-15.748-2.65-22.532,1.092s-11.395,11.71-9.992,19.33" transform="translate(-272.5 -243.16)" fill="#271804"/>
  </g>
</svg>
