<svg xmlns="http://www.w3.org/2000/svg" width="219.183" height="221.672" viewBox="0 0 219.183 221.672">
  <g id="moon" transform="translate(-75.027 27.092) rotate(-19)" fill="#fffa5d">
    <path d="M 143.0000915527344 226.4998168945313 C 125.7146224975586 226.4998168945313 108.9392700195313 221.5633392333984 94.48759460449219 212.2240295410156 C 87.51446533203125 207.7176818847656 81.19727325439453 202.2638549804688 75.71148681640625 196.0140075683594 C 70.45755767822266 190.0283508300781 66.03308868408203 183.3880920410156 62.5485954284668 176.2613830566406 C 71.39559936523438 179.0743560791016 80.62503814697266 180.5000152587891 90.00000762939453 180.5000152587891 C 139.9018859863281 180.5000152587891 180.5000152587891 139.9018707275391 180.5000152587891 90.00000762939453 C 180.5000152587891 76.87964630126953 177.7603302001953 64.24442291259766 172.3549041748047 52.42486190795898 C 180.7431640625 55.33536148071289 188.6366424560547 59.47862243652344 195.8334197998047 64.75031280517578 C 203.2562866210938 70.18766021728516 209.7790374755859 76.70679473876953 215.2204284667969 84.12664031982422 C 220.7267303466797 91.63494110107422 225.0042877197266 99.90303039550781 227.9342956542969 108.7011795043945 C 230.9639434814453 117.7987442016602 232.5001220703125 127.3197708129883 232.5001220703125 136.9997863769531 C 232.5001220703125 149.0825347900391 230.1337890625 160.8035583496094 225.4669036865234 171.8372650146484 C 223.2238311767578 177.1404418945313 220.4475250244141 182.2553558349609 217.2151031494141 187.0399627685547 C 214.0133209228516 191.7792205810547 210.3362274169922 196.2358551025391 206.2860260009766 200.2860717773438 C 202.2357940673828 204.3362274169922 197.7791595458984 208.0132446289063 193.0399017333984 211.2150268554688 C 188.2553100585938 214.4474182128906 183.140380859375 217.2237091064453 177.8372039794922 219.4667510986328 C 166.8035278320313 224.133544921875 155.0826416015625 226.4998168945313 143.0000915527344 226.4998168945313 Z" stroke="none"/>
    <path d="M 143.0001220703125 225.9998016357422 C 155.0153961181641 225.9998016357422 166.6707458496094 223.6468200683594 177.6424560546875 219.0062561035156 C 182.9159088134766 216.7757568359375 188.0021820068359 214.0150299072266 192.7600250244141 210.8007354736328 C 197.4728393554688 207.6168060302734 201.9047088623047 203.960205078125 205.9324645996094 199.9325103759766 C 209.9601898193359 195.90478515625 213.6168212890625 191.4729309082031 216.8007965087891 186.7600555419922 C 220.0151824951172 182.0021667480469 222.7759399414063 176.9158630371094 225.0064086914063 171.6425018310547 C 229.6470947265625 160.6707153320313 232.0001220703125 149.0152282714844 232.0001220703125 136.9997863769531 C 232.0001220703125 127.3735275268555 230.4725646972656 117.9056396484375 227.4599151611328 108.8591461181641 C 224.5463409423828 100.1103668212891 220.292724609375 91.88861846923828 214.8172302246094 84.42232513427734 C 209.4060668945313 77.04370880126953 202.9196014404297 70.56079864501953 195.5379638671875 65.15366363525391 C 188.6969146728516 60.14256286621094 181.2223510742188 56.15663146972656 173.2907409667969 53.28692626953125 C 178.4078216552734 64.86377716064453 181 77.20215606689453 181 90.00000762939453 C 181 140.1775817871094 140.1775665283203 181 90 181 C 80.96800994873047 181 72.07091522216797 179.6841583251953 63.51681900024414 177.0859222412109 C 66.89837646484375 183.7776641845703 71.12015533447266 190.0252838134766 76.08724975585938 195.6841888427734 C 81.54257202148438 201.8993072509766 87.82463836669922 207.3227996826172 94.75897979736328 211.8040771484375 C 109.1295700073242 221.0910034179688 125.8110961914063 225.9998016357422 143.0001220703125 225.9998016357422 M 143.0001220703125 226.9998016357422 C 125.6181411743164 226.9998016357422 108.748908996582 222.03564453125 94.21620941162109 212.6439666748047 C 87.20425415039063 208.1125335693359 80.85193634033203 202.6283721923828 75.33570861816406 196.3438720703125 C 69.79375457763672 190.0300445556641 65.16945648193359 182.9917144775391 61.5912971496582 175.4243469238281 C 70.72450256347656 178.4600677490234 80.28216552734375 180 90 180 C 139.6261901855469 180 180 139.6261596679688 180 90.00000762939453 C 180 76.55989074707031 177.1093597412109 63.63193893432617 171.4083862304688 51.57530212402344 C 180.2598876953125 54.51741409301758 188.57666015625 58.81489181518555 196.1288909912109 64.34693908691406 C 203.5929870605469 69.81448364257813 210.1519622802734 76.36982727050781 215.6236114501953 83.83094024658203 C 221.1607360839844 91.38125610351563 225.4622344970703 99.69566345214844 228.40869140625 108.5431900024414 C 231.455322265625 117.6917114257813 233.0001220703125 127.2658920288086 233.0001220703125 136.9997863769531 C 233.0001220703125 149.1498260498047 230.6204986572266 160.9363708496094 225.9274139404297 172.0320587158203 C 223.6717681884766 177.3649444580078 220.8799133300781 182.5084991455078 217.6294097900391 187.3198699951172 C 214.4097595214844 192.0855712890625 210.7122344970703 196.5669555664063 206.6395721435547 200.6396179199219 C 202.5668029785156 204.7123260498047 198.0853881835938 208.4098052978516 193.31982421875 211.6293487548828 C 188.5084838867188 214.8798065185547 183.3649139404297 217.6716156005859 178.0319976806641 219.9272613525391 C 166.9363250732422 224.6202850341797 155.1498870849609 226.9998016357422 143.0001220703125 226.9998016357422 Z" stroke="none" fill="#707070"/>
  </g>
</svg>
